<?xml version="1.0" encoding="iso-8859-1"?>
<!-- Uploaded to: SVG Repo, www.svgrepo.com, Generator: SVG Repo Mixer Tools -->
<svg fill="#000000" version="1.1" id="Layer_1" xmlns="http://www.w3.org/2000/svg" xmlns:xlink="http://www.w3.org/1999/xlink" 
	 viewBox="0 0 512.001 512.001" xml:space="preserve">
<g>
	<g>
		<path d="M479.92,65.966c-3.833-3.338-94.685-81.533-166.641-63.18c-24.509,6.253-43.714,22.796-57.279,49.252
			c-12.892-25.135-30.897-41.34-53.701-48.255c-21.85-6.625-47.774-4.536-77.054,6.211l5.523,15.045
			c25.935-9.519,48.436-11.512,66.881-5.919c19.751,5.988,35.308,21.064,46.354,44.875h-22.015l-29.651-29.651l-11.332,11.334
			l18.319,18.319H168.66l-29.651-29.651l-11.333,11.332l18.319,18.319H112.01v16.027h33.985l-18.319,18.319l11.332,11.332
			l29.651-29.651h30.665l-18.319,18.319l11.332,11.332l29.651-29.651h22.017c-11.569,24.931-28.091,40.276-49.223,45.675
			c-52.957,13.528-122.227-36.02-144.754-53.697c11.887-9.348,36.803-27.586,65.557-40.698l-6.65-14.583
			C66.791,35.94,33.481,64.75,32.084,65.967l-6.939,6.043l6.939,6.043c3.431,2.987,76.596,65.967,143.516,65.966
			c7.834,0,15.584-0.863,23.125-2.787c20.022-5.108,36.504-17.085,49.264-35.72v25.164h16.027v-25.169
			c11.378,16.605,25.726,27.937,42.891,33.825c9.105,3.122,18.949,4.682,29.478,4.682c13.806,0,28.787-2.683,44.816-8.041
			l-5.082-15.2c-24.838,8.303-46.373,9.448-64.013,3.399c-18.676-6.404-33.475-21.238-44.104-44.148h22.014l29.651,29.651
			l11.333-11.332L312.68,80.024h30.665l29.65,29.651l11.333-11.332l-18.319-18.319h33.985V63.997h-33.985l18.319-18.319
			l-11.333-11.332l-29.65,29.651H312.68l18.319-18.319l-11.333-11.332l-29.651,29.651h-22.017
			c11.569-24.931,28.091-40.276,49.222-45.675C370.173,4.793,439.449,54.34,461.976,72.017
			c-12.559,9.876-39.662,29.672-70.469,42.871l6.31,14.732c44.544-19.084,80.589-50.25,82.102-51.568l6.938-6.043L479.92,65.966z"/>
	</g>
</g>
<g>
	<g>
		<path d="M479.917,247.292c-3.829-3.339-94.673-81.54-166.638-63.181c-20.021,5.107-36.503,17.084-49.263,35.719v-67.822H247.99
			v67.847c-10.689-15.598-23.996-26.559-39.795-32.71c-29.632-11.536-66.81-6.037-110.5,16.349l7.308,14.264
			c27.112-13.891,66.014-27.887,97.377-15.677c17.494,6.811,31.449,21.35,41.607,43.241h-21.995L192.34,215.67l-11.332,11.332
			l18.319,18.319h-30.665l-29.651-29.651l-11.332,11.332l18.319,18.319H112.01v16.027h33.985l-18.319,18.319L139.008,291
			l29.651-29.651h30.665l-18.319,18.319L192.337,291l29.651-29.651h22.017c-11.569,24.931-28.091,40.276-49.223,45.675
			C141.823,320.55,72.55,271.002,50.023,253.325c8.077-6.355,22.17-16.818,39.387-26.971l-8.141-13.806
			c-28.462,16.784-48.355,34.018-49.188,34.743l-6.939,6.043l6.939,6.043c3.431,2.987,76.596,65.968,143.516,65.967
			c7.834,0,15.584-0.863,23.125-2.787c20.022-5.108,36.504-17.085,49.264-35.72V312h16.027v-25.213
			c17.494,25.512,41.941,38.56,72.359,38.56c8.854,0,18.216-1.105,28.058-3.329l-3.533-15.633
			c-21.445,4.844-40.052,3.659-55.301-3.526c-15.609-7.354-28.216-21.303-37.59-41.511h22.005L319.663,291l11.333-11.332
			l-18.319-18.319h30.665L372.992,291l11.333-11.332l-18.319-18.319h33.985v-16.027h-33.985l18.319-18.319l-11.333-11.332
			l-29.65,29.651h-30.665l18.319-18.319l-11.333-11.332l-29.651,29.651h-22.017c11.569-24.931,28.091-40.276,49.222-45.675
			c52.953-13.53,122.228,36.017,144.755,53.695c-13.939,10.958-45.792,34.136-80.745,46.964l5.522,15.046
			c49.386-18.124,91.404-54.436,93.168-55.973l6.938-6.043L479.917,247.292z"/>
	</g>
</g>
<g>
	<g>
		<path d="M370.392,495.974c-3.945-56.859-49.518-102.432-106.376-106.377v-56.268H247.99v56.268
			c-56.859,3.945-102.432,49.518-106.377,106.377h-34.936v16.027h298.651v-16.027H370.392z M157.681,495.974
			c1.079-13.357,4.829-25.969,10.717-37.303h92.938v-16.027h-82.53c18.088-22.716,45.969-37.303,77.196-37.303
			c51.697,0,94.228,39.973,98.321,90.634H157.681z"/>
	</g>
</g>
<g>
	<g>
		<rect x="421.321" y="495.974" width="37.331" height="16.027"/>
	</g>
</g>
<g>
	<g>
		<rect x="64.013" y="495.974" width="26.665" height="16.027"/>
	</g>
</g>
<g>
	<g>
		<rect x="282.666" y="442.646" width="21.332" height="16.027"/>
	</g>
</g>
</svg>