<?xml version="1.0" encoding="iso-8859-1"?>
<!-- Uploaded to: SVG Repo, www.svgrepo.com, Generator: SVG Repo Mixer Tools -->
<svg fill="#000000" height="800px" width="800px" version="1.1" id="Layer_1" xmlns="http://www.w3.org/2000/svg" xmlns:xlink="http://www.w3.org/1999/xlink" 
	 viewBox="0 0 511.996 511.996" xml:space="preserve">
<g>
	<g>
		<path d="M506.909,306.084l-19.737-19.737c-7.621-7.621-16.068-14.109-25.097-19.413v-46.844h1.158
			c9.591,0,17.366-7.775,17.366-17.366c0-9.591-7.775-17.366-17.366-17.366h-38.205c-9.591,0-17.366,7.775-17.366,17.366
			c0,9.591,7.775,17.366,17.366,17.366h2.315v32.94c-15.617-3.684-31.92-4.377-48.008-1.88c0.79-25.687-3.423-52.337-12.502-78.344
			c-12.433-35.612-33.778-69.21-61.727-97.158s-61.546-49.294-97.158-61.727C172.994,1.717,136.878-1.711,103.506,4.006
			c-7.258,1.243-12.942,6.928-14.185,14.185c-5.717,33.375-2.289,69.49,9.914,104.441c12.433,35.613,33.778,69.21,61.727,97.158
			c2.342,2.342,4.739,4.621,7.158,6.869c-3.18,0.85-6.352,1.738-9.508,2.706c-37.786,11.598-72.383,31.28-100.052,56.918
			c-27.155,25.161-47.104,55.461-57.689,87.626c-2.302,6.994,0.057,14.679,5.886,19.178c26.807,20.686,60.32,34.577,96.914,40.172
			c12.131,1.855,24.508,2.775,36.998,2.775c25.902,0,52.264-3.964,77.757-11.789c37.786-11.598,72.384-31.28,100.053-56.918
			c24.798-22.978,43.56-50.246,54.696-79.298c31.536-9.219,65.928-0.634,89.441,22.877l19.738,19.738
			c3.386,3.392,7.831,5.087,12.276,5.087c4.445,0,8.889-1.695,12.279-5.087C513.691,323.861,513.691,312.866,506.909,306.084z
			 M208.233,391.041c-60.3,18.509-124.112,11.449-169.907-18.137c21.31-50.182,70.174-91.826,130.475-110.333
			c11.639-3.573,23.408-6.182,35.155-7.871c17.14,11.19,35.365,20.257,54.164,26.82c3.022,1.055,6.052,2.043,9.088,2.967
			l-26.696,8.194c-9.168,2.814-14.32,12.529-11.506,21.697c2.814,9.168,12.529,14.318,21.697,11.506l76.812-23.577
			C302.715,342.667,259.637,375.263,208.233,391.041z M280.1,170.138c-6.813-6.752-17.808-6.701-24.559,0.112
			s-6.701,17.808,0.112,24.559c19.58,19.401,45.369,45.028,64.599,64.259c-47.417-2.878-96.59-25.691-134.734-63.835
			c-44.602-44.603-68.261-104.285-63.578-158.604c54.313-4.68,114.001,18.975,158.604,63.578
			c37.897,37.897,60.662,86.682,63.781,133.814C319.109,208.801,285.661,175.649,280.1,170.138z"/>
	</g>
</g>
<g>
	<g>
		<path d="M494.49,457.426c-9.591,0-17.366,7.775-17.366,17.366v18.524c0,9.591,7.775,17.366,17.366,17.366
			s17.366-7.775,17.366-17.366v-18.524C511.856,465.201,504.082,457.426,494.49,457.426z"/>
	</g>
</g>
<g>
	<g>
		<path d="M494.49,360.176c-9.591,0-17.366,7.775-17.366,17.366v48.625c0,9.591,7.775,17.366,17.366,17.366
			s17.366-7.775,17.366-17.366v-48.625C511.856,367.951,504.082,360.176,494.49,360.176z"/>
	</g>
</g>
</svg>